<svg width="1500" height="320" viewBox="0 0 1500 320" fill="none" xmlns="http://www.w3.org/2000/svg">
<g clip-path="url(#clip0_9_919)">
<rect width="1500" height="320" fill="black"/>
<g clip-path="url(#clip1_9_919)">
<path d="M458.239 228.116H445.842V280.592H458.239V228.116Z" fill="black"/>
<path d="M467.589 230.255H461.426V274.266H467.589V230.255Z" fill="black"/>
<path d="M475.28 234.018H470.138V270.498H475.28V234.018Z" fill="black"/>
<path d="M480.988 236.432H477.38V268.085H480.988V236.432Z" fill="black"/>
<path d="M484.969 238.852H482.604V265.665H484.969V238.852Z" fill="black"/>
<path d="M487.555 241.018H486.348V263.498H487.555V241.018Z" fill="black"/>
<path d="M503.458 263.022V241.978H512.157C516.523 241.978 519.343 244.661 519.343 248.569C519.343 252.477 516.523 255.173 512.157 255.173H506.732V263.022H503.458ZM506.732 252.2H512.016C514.588 252.2 515.928 250.589 515.928 248.574C515.928 246.558 514.588 244.947 512.016 244.947H506.732V252.205V252.2Z" fill="black"/>
<path d="M521.243 263.022V248.132H524.344V250.161C525.187 248.534 526.605 247.82 528.24 247.82C529.407 247.82 530.299 248.195 530.299 248.195L529.972 251.014C529.799 250.952 529.129 250.673 528.148 250.673C526.495 250.673 524.344 251.54 524.344 254.908V263.019H521.243V263.022Z" fill="black"/>
<path d="M530.865 255.578C530.865 251.221 534.264 247.825 538.818 247.825C543.372 247.825 546.771 251.221 546.771 255.578C546.771 259.934 543.372 263.331 538.818 263.331C534.264 263.331 530.865 259.934 530.865 255.578ZM538.818 260.446C541.638 260.446 543.683 258.321 543.683 255.578C543.683 252.835 541.643 250.71 538.818 250.71C535.993 250.71 533.953 252.835 533.953 255.578C533.953 258.321 535.993 260.446 538.818 260.446Z" fill="black"/>
<path d="M549.066 241.186H552.152V250.166C553.259 248.755 554.945 247.825 557.484 247.825C561.742 247.825 564.998 250.928 564.998 255.501C564.998 260.074 561.737 263.333 557.484 263.333C554.942 263.333 553.259 262.403 552.152 260.992V263.022H549.066V241.186ZM557.111 260.569C559.994 260.569 561.914 258.242 561.914 255.499C561.914 252.756 559.996 250.582 557.111 250.582C554.226 250.582 552.168 252.756 552.168 255.499C552.168 258.242 554.226 260.569 557.111 260.569Z" fill="black"/>
<path d="M574.638 247.825C579.002 247.825 581.843 251.049 581.843 255.034C581.843 255.499 581.813 255.98 581.716 256.459H570.102C570.243 258.693 572.161 260.446 574.746 260.446C576.618 260.446 578.113 259.655 579.236 257.903L581.514 259.549C580.125 262.029 577.399 263.333 574.746 263.333C570.224 263.333 566.904 260.013 566.904 255.597C566.904 251.18 570.1 247.825 574.638 247.825ZM578.709 254.167C578.52 252.075 576.761 250.598 574.608 250.598C572.317 250.598 570.572 252.072 570.181 254.167H578.707H578.709Z" fill="black"/>
<path d="M598.218 263.022H584.208V241.962H587.496V260.06H598.218V263.019V263.022Z" fill="black"/>
<path d="M606.713 254.071C608.506 254.071 609.8 254.446 610.484 254.767V253.96C610.484 252.098 608.971 250.703 606.65 250.703C604.795 250.703 603.252 251.758 602.363 252.765L600.415 250.842C601.569 249.385 603.97 247.82 606.699 247.82C610.91 247.82 613.576 250.085 613.576 253.697V263.017H610.553V261.094C609.632 262.489 607.901 263.329 605.891 263.329C602.649 263.329 600.109 261.701 600.109 258.786C600.109 255.871 602.791 254.071 606.719 254.071H606.715H606.713ZM606.337 260.816C608.769 260.816 610.484 259.156 610.484 257.126C609.844 256.801 608.409 256.412 606.791 256.412C604.843 256.412 603.222 257.066 603.222 258.677C603.222 260.025 604.578 260.816 606.342 260.816H606.337Z" fill="black"/>
<path d="M616.114 241.186H619.201V250.166C620.309 248.755 621.992 247.825 624.534 247.825C628.791 247.825 632.047 250.928 632.047 255.501C632.047 260.074 628.787 263.333 624.534 263.333C621.992 263.333 620.309 262.403 619.201 260.992V263.022H616.114V241.186ZM624.159 260.569C627.044 260.569 628.962 258.242 628.962 255.499C628.962 252.756 627.044 250.582 624.159 250.582C621.273 250.582 619.215 252.756 619.215 255.499C619.215 258.242 621.273 260.569 624.159 260.569Z" fill="black"/>
</g>
<path d="M1109.38 258.063H1100.68V196.188H1109.43V221.193C1110.83 219.039 1114.83 214.996 1122.39 214.996C1133.77 214.996 1139.88 222.203 1139.88 232.443V258.063H1131.18V234.288C1131.18 227.301 1127.36 223.258 1121.03 223.258C1114.61 223.258 1109.38 227.301 1109.38 234.288V258.063ZM1148.74 237.013C1148.74 224.445 1157.75 214.996 1170.53 214.996C1182.84 214.996 1190.84 224.137 1190.84 235.431C1190.84 236.749 1190.75 238.112 1190.48 239.474H1157.75C1158.14 245.802 1163.55 250.768 1170.84 250.768C1176.11 250.768 1180.33 248.527 1183.5 243.561L1189.91 248.219C1186 255.25 1178.31 258.942 1170.84 258.942C1158.1 258.942 1148.74 249.537 1148.74 237.013ZM1157.96 232.97H1182C1181.48 227.037 1176.51 222.863 1170.45 222.863C1163.99 222.863 1159.06 227.037 1157.96 232.97ZM1209.05 258.063H1200.31V215.875H1209.05V221.632C1211.43 217.018 1215.42 214.996 1220.04 214.996C1223.33 214.996 1225.84 216.051 1225.84 216.051L1224.92 224.049C1224.43 223.873 1222.54 223.082 1219.77 223.082C1215.12 223.082 1209.05 225.543 1209.05 235.079V258.063ZM1233.24 258.063V215.875H1241.99V221.193C1243.35 219.039 1247.35 214.996 1254.78 214.996C1262.03 214.996 1267.13 217.985 1269.81 222.863C1272.36 218.732 1277.63 214.996 1284.88 214.996C1296.13 214.996 1302.2 222.203 1302.2 232.443V258.063H1293.45V234.288C1293.45 227.301 1289.71 223.258 1283.52 223.258C1277.37 223.258 1272.31 227.125 1272.09 233.761V258.063H1263.35V234.288C1263.35 227.301 1259.61 223.258 1253.42 223.258C1247.13 223.258 1241.99 227.301 1241.99 234.288V258.063H1233.24ZM1311.01 237.013C1311.01 224.445 1320.02 214.996 1332.8 214.996C1345.11 214.996 1353.11 224.137 1353.11 235.431C1353.11 236.749 1353.02 238.112 1352.75 239.474H1320.02C1320.41 245.802 1325.82 250.768 1333.11 250.768C1338.38 250.768 1342.6 248.527 1345.77 243.561L1352.18 248.219C1348.27 255.25 1340.58 258.942 1333.11 258.942C1320.37 258.942 1311.01 249.537 1311.01 237.013ZM1320.24 232.97H1344.27C1343.75 227.037 1338.78 222.863 1332.72 222.863C1326.26 222.863 1321.33 227.037 1320.24 232.97ZM1359.33 249.186L1365.79 243.956C1368.16 248.087 1372.2 250.944 1377.56 250.944C1382.09 250.944 1385.47 249.142 1385.47 246.285C1385.47 243.165 1382.88 242.199 1376.68 240.792C1367.63 238.771 1361.17 235.914 1361.17 227.565C1361.17 219.918 1368.16 214.996 1376.77 214.996C1384.64 214.996 1390.66 219.083 1393.47 223.698L1387.63 228.707C1385.34 225.455 1381.74 222.951 1376.77 222.951C1372.6 222.951 1369.78 224.708 1369.78 227.433C1369.78 230.641 1372.9 231.52 1379.1 233.014C1388.29 235.255 1394.26 238.243 1394.26 246.285C1394.26 253.976 1386.53 258.942 1377.56 258.942C1369.35 258.942 1362.58 255.162 1359.33 249.186Z" fill="black"/>
<rect x="323.97" y="143.994" width="133.081" height="44.0015" fill="#89F81C"/>
<rect x="710.082" y="231.997" width="702.329" height="54.4974" fill="#89F81C"/>
<rect x="1486.76" y="231.997" width="441.924" height="44.0015" fill="#89F81C"/>
<rect x="1219.82" y="99.9926" width="219.678" height="44.0015" fill="#89F81C"/>
<rect x="707.042" y="143.994" width="989.104" height="44.0015" fill="#89F81C"/>
<rect x="474.149" y="187.995" width="483.212" height="44.0015" fill="#89F81C"/>
<rect x="957.361" y="187.995" width="616.742" height="44.0015" fill="#89F81C"/>
<rect x="323.97" y="231.997" width="375.509" height="54.4974" fill="#89F81C"/>
<rect x="416.784" y="286.494" width="1453.32" height="33.5056" fill="#89F81C"/>
<rect x="1393.57" y="231.997" width="6.28593" height="6.28593" fill="#89F81C"/>
<rect x="1399.86" y="238.283" width="6.28593" height="6.28593" fill="#89F81C"/>
<rect x="1393.57" y="244.569" width="6.28593" height="6.28593" fill="#89F81C"/>
<rect x="1406.14" y="231.997" width="6.28593" height="6.28593" fill="#89F81C"/>
<rect x="1406.14" y="244.569" width="6.28593" height="6.28593" fill="#89F81C"/>
<rect x="1412.43" y="238.283" width="6.28593" height="6.28593" fill="#89F81C"/>
<rect x="1418.72" y="231.997" width="6.28593" height="6.28593" fill="#89F81C"/>
<rect x="1418.72" y="244.569" width="6.28593" height="6.28593" fill="#89F81C"/>
<rect x="1425" y="238.283" width="6.28593" height="6.28593" fill="#89F81C"/>
<rect x="1431.29" y="231.997" width="6.28593" height="6.28593" fill="#89F81C"/>
<rect x="1431.29" y="244.569" width="6.28593" height="6.28593" fill="#89F81C"/>
<rect x="1399.86" y="250.855" width="6.28593" height="6.28593" fill="#89F81C"/>
<rect x="1406.14" y="257.141" width="6.28593" height="6.28593" fill="#89F81C"/>
<rect x="1399.86" y="263.427" width="6.28593" height="6.28593" fill="#89F81C"/>
<rect x="1412.43" y="250.855" width="6.28593" height="6.28593" fill="#89F81C"/>
<rect x="1412.43" y="263.427" width="6.28593" height="6.28593" fill="#89F81C"/>
<rect x="1418.72" y="257.141" width="6.28593" height="6.28593" fill="#89F81C"/>
<rect x="1425" y="250.855" width="6.28593" height="6.28593" fill="#89F81C"/>
<rect x="1425" y="263.427" width="6.28593" height="6.28593" fill="#89F81C"/>
<rect x="1431.29" y="257.141" width="6.28593" height="6.28593" fill="#89F81C"/>
<rect x="1393.57" y="257.141" width="6.28593" height="6.28593" fill="#89F81C"/>
<rect x="1406.14" y="269.713" width="6.28593" height="6.28593" fill="#89F81C"/>
<rect x="1418.72" y="269.713" width="6.28593" height="6.28593" fill="#89F81C"/>
<rect x="1431.29" y="269.713" width="6.28593" height="6.28593" fill="#89F81C"/>
<rect x="1393.57" y="269.713" width="6.28593" height="6.28593" fill="#89F81C"/>
<rect x="474.149" y="187.995" width="6.28593" height="162.692" transform="rotate(-90 474.149 187.995)" fill="#89F81C"/>
<rect x="474.149" y="175.424" width="6.28593" height="162.692" transform="rotate(-90 474.149 175.424)" fill="#89F81C"/>
<rect x="474.149" y="162.852" width="6.28593" height="162.692" transform="rotate(-90 474.149 162.852)" fill="#89F81C"/>
<rect x="474.149" y="150.28" width="6.28593" height="162.692" transform="rotate(-90 474.149 150.28)" fill="#89F81C"/>
<rect width="239.027" height="44.0015" transform="matrix(-1 0 0 1 280.025 55.991)" fill="#89F81C"/>
<rect width="163.583" height="44.8585" transform="matrix(-1 0 0 1 1187.54 99.9924)" fill="#89F81C"/>
<rect width="95.1877" height="44.0731" transform="matrix(-1 0 0 1 1352.57 55.9194)" fill="#89F81C"/>
<rect width="367.63" height="44.0015" transform="matrix(-1 0 0 1 800.59 99.9924)" fill="#89F81C"/>
<path d="M416.915 187.995H323.97V231.997H416.915V187.995Z" fill="#89F81C"/>
<path d="M323.97 11.989H280.025V55.9904H323.97V11.989Z" fill="#89F81C"/>
<rect width="28.98" height="44.0015" transform="matrix(-1 0 0 1 26.3303 99.9924)" fill="#89F81C"/>
<rect width="6.30636" height="6.30636" transform="matrix(-1 0 0 1 132.504 231.854)" fill="#89F81C"/>
<rect width="6.30636" height="6.30636" transform="matrix(-1 0 0 1 126.198 238.16)" fill="#89F81C"/>
<rect width="6.30636" height="6.30636" transform="matrix(-1 0 0 1 132.504 244.467)" fill="#89F81C"/>
<rect width="6.30636" height="6.30636" transform="matrix(-1 0 0 1 119.891 231.854)" fill="#89F81C"/>
<rect width="6.30636" height="6.30636" transform="matrix(-1 0 0 1 119.891 244.467)" fill="#89F81C"/>
<rect width="6.30636" height="6.30636" transform="matrix(-1 0 0 1 113.585 238.16)" fill="#89F81C"/>
<rect width="6.30636" height="6.30636" transform="matrix(-1 0 0 1 107.278 231.854)" fill="#89F81C"/>
<rect width="6.30636" height="6.30636" transform="matrix(-1 0 0 1 107.278 244.467)" fill="#89F81C"/>
<rect width="6.30636" height="6.30636" transform="matrix(-1 0 0 1 100.972 238.16)" fill="#89F81C"/>
<rect width="6.30636" height="6.30636" transform="matrix(-1 0 0 1 94.6658 231.854)" fill="#89F81C"/>
<rect width="6.30636" height="6.30636" transform="matrix(-1 0 0 1 94.6658 244.467)" fill="#89F81C"/>
<rect width="6.30636" height="6.30636" transform="matrix(-1 0 0 1 126.198 250.773)" fill="#89F81C"/>
<rect width="6.30636" height="6.30636" transform="matrix(-1 0 0 1 119.891 257.079)" fill="#89F81C"/>
<rect width="6.30636" height="6.30636" transform="matrix(-1 0 0 1 126.198 263.386)" fill="#89F81C"/>
<rect width="6.30636" height="6.30636" transform="matrix(-1 0 0 1 113.585 250.773)" fill="#89F81C"/>
<rect width="6.30636" height="6.30636" transform="matrix(-1 0 0 1 113.585 263.386)" fill="#89F81C"/>
<rect width="6.30636" height="6.30636" transform="matrix(-1 0 0 1 107.278 257.079)" fill="#89F81C"/>
<rect width="6.30636" height="6.30636" transform="matrix(-1 0 0 1 100.972 250.773)" fill="#89F81C"/>
<rect width="6.30636" height="6.30636" transform="matrix(-1 0 0 1 100.972 263.386)" fill="#89F81C"/>
<rect width="6.30636" height="6.30636" transform="matrix(-1 0 0 1 94.6658 257.079)" fill="#89F81C"/>
<rect width="6.30636" height="6.30636" transform="matrix(-1 0 0 1 132.504 257.079)" fill="#89F81C"/>
<rect width="6.30636" height="6.30636" transform="matrix(-1 0 0 1 119.891 269.692)" fill="#89F81C"/>
<rect width="6.30636" height="6.30636" transform="matrix(-1 0 0 1 107.278 269.692)" fill="#89F81C"/>
<rect width="6.30636" height="6.30636" transform="matrix(-1 0 0 1 94.6658 269.692)" fill="#89F81C"/>
<rect width="6.30636" height="6.30636" transform="matrix(-1 0 0 1 132.504 269.692)" fill="#89F81C"/>
<rect width="6.28593" height="97.8753" transform="matrix(4.37114e-08 -1 -1 -4.37114e-08 374.101 143.994)" fill="#89F81C"/>
<rect width="6.28593" height="97.8753" transform="matrix(4.37114e-08 -1 -1 -4.37114e-08 374.101 131.422)" fill="#89F81C"/>
<rect width="6.28593" height="97.8753" transform="matrix(4.37114e-08 -1 -1 -4.37114e-08 374.101 118.85)" fill="#89F81C"/>
<rect width="6.28593" height="97.8753" transform="matrix(4.37114e-08 -1 -1 -4.37114e-08 374.101 106.278)" fill="#89F81C"/>
<rect width="14.6672" height="14.6672" transform="matrix(-1 0 0 1 70.332 114.517)" fill="#89F81C"/>
<rect width="14.6672" height="14.6672" transform="matrix(-1 0 0 1 55.6648 99.8495)" fill="#89F81C"/>
<rect width="14.6672" height="14.6672" transform="matrix(-1 0 0 1 55.6648 129.184)" fill="#89F81C"/>
<rect width="14.6672" height="14.6672" transform="matrix(-1 0 0 1 40.9976 114.517)" fill="#89F81C"/>
<rect x="243.847" y="202.52" width="14.6672" height="14.6672" fill="#89F81C"/>
<rect x="258.515" y="187.853" width="14.6672" height="14.6672" fill="#89F81C"/>
<rect x="258.515" y="217.187" width="14.6672" height="14.6672" fill="#89F81C"/>
<rect x="273.182" y="202.52" width="14.6672" height="14.6672" fill="#89F81C"/>
<rect x="1456" y="99.9926" width="14.6672" height="14.6672" fill="#89F81C"/>
<rect x="1470.67" y="114.66" width="14.6672" height="14.6672" fill="#89F81C"/>
<rect x="1456" y="129.327" width="14.6672" height="14.6672" fill="#89F81C"/>
<rect x="1485.33" y="99.9926" width="14.6672" height="14.6672" fill="#89F81C"/>
<rect x="1485.33" y="129.327" width="14.6672" height="14.6672" fill="#89F81C"/>
<path d="M898.629 257.716C898.629 249.805 906.188 244.356 917.262 244.356C922.316 244.356 925.963 245.411 927.897 246.334V244.049C927.897 238.775 923.634 234.82 917.086 234.82C911.857 234.82 907.506 237.808 905.001 240.665L899.508 235.216C902.76 231.085 909.528 226.646 917.218 226.646C929.083 226.646 936.598 233.062 936.598 243.301V269.713H928.073V264.263C925.48 268.218 920.602 270.591 914.933 270.591C905.792 270.591 898.629 265.977 898.629 257.716ZM907.418 257.408C907.418 261.231 911.242 263.472 916.207 263.472C923.063 263.472 927.897 258.77 927.897 253.013C926.095 252.091 922.052 250.992 917.482 250.992C911.989 250.992 907.418 252.838 907.418 257.408ZM957.231 269.713H948.53V227.525H957.275V232.842C958.681 230.689 962.68 226.646 970.239 226.646C981.841 226.646 987.949 233.853 987.949 244.092V269.713H979.248V245.938C979.248 238.951 975.425 234.908 968.877 234.908C962.461 234.908 957.231 238.951 957.231 245.938V269.713ZM1001.86 234.908H994.344V227.525H1001.99V213.99H1010.47V227.525H1023.88V234.908H1010.56V256.002C1010.56 260.484 1013.15 262.725 1017.46 262.725C1019.48 262.725 1022.25 262.154 1024.31 261.275L1025.46 268.746C1023.35 269.844 1019.61 270.591 1016.23 270.591C1007.4 270.591 1001.86 265.626 1001.86 257.056V234.908ZM1029.52 260.836L1035.98 255.606C1038.36 259.737 1042.4 262.593 1047.76 262.593C1052.29 262.593 1055.67 260.792 1055.67 257.935C1055.67 254.815 1053.08 253.848 1046.88 252.442C1037.83 250.421 1031.37 247.564 1031.37 239.215C1031.37 231.568 1038.36 226.646 1046.97 226.646C1054.84 226.646 1060.86 230.733 1063.67 235.347L1057.82 240.357C1055.54 237.105 1051.94 234.6 1046.97 234.6C1042.79 234.6 1039.98 236.358 1039.98 239.083C1039.98 242.291 1043.1 243.17 1049.3 244.664C1058.48 246.905 1064.46 249.893 1064.46 257.935C1064.46 265.626 1056.73 270.591 1047.76 270.591C1039.54 270.591 1032.77 266.812 1029.52 260.836ZM1101.84 240.401V248.487H1073.01V240.401H1101.84ZM1120.62 269.713L1108.19 227.525H1117.37L1126.64 261.187L1136.49 227.965H1145.72L1155.56 261.187L1164.83 227.525H1174.02L1161.58 269.713H1149.72L1141.1 239.698L1132.49 269.713H1120.62ZM1178.08 257.716C1178.08 249.805 1185.64 244.356 1196.72 244.356C1201.77 244.356 1205.42 245.411 1207.35 246.334V244.049C1207.35 238.775 1203.09 234.82 1196.54 234.82C1191.31 234.82 1186.96 237.808 1184.45 240.665L1178.96 235.216C1182.21 231.085 1188.98 226.646 1196.67 226.646C1208.54 226.646 1216.05 233.062 1216.05 243.301V269.713H1207.53V264.263C1204.93 268.218 1200.06 270.591 1194.39 270.591C1185.25 270.591 1178.08 265.977 1178.08 257.716ZM1186.87 257.408C1186.87 261.231 1190.7 263.472 1195.66 263.472C1202.52 263.472 1207.35 258.77 1207.35 253.013C1205.55 252.091 1201.51 250.992 1196.94 250.992C1191.44 250.992 1186.87 252.838 1186.87 257.408ZM1230.01 234.908H1222.49V227.525H1230.14V213.99H1238.62V227.525H1252.02V234.908H1238.71V256.002C1238.71 260.484 1241.3 262.725 1245.61 262.725C1247.63 262.725 1250.4 262.154 1252.46 261.275L1253.6 268.746C1251.49 269.844 1247.76 270.591 1244.38 270.591C1235.54 270.591 1230.01 265.626 1230.01 257.056V234.908ZM1279.11 270.591C1266.33 270.591 1256.75 260.88 1256.75 248.575C1256.75 236.226 1266.72 226.646 1279.47 226.646C1287.77 226.646 1294.72 230.997 1298.67 238.204L1291.95 242.774C1289.31 237.896 1284.56 234.82 1279.29 234.82C1271.16 234.82 1265.54 240.841 1265.54 248.575C1265.54 256.353 1271.29 262.418 1279.11 262.418C1284.61 262.418 1289.18 259.517 1292.08 254.508L1298.63 259.122C1294.76 266.065 1287.64 270.591 1279.11 270.591ZM1315.92 269.713H1307.22V207.838H1315.96V232.842C1317.37 230.689 1321.37 226.646 1328.93 226.646C1340.31 226.646 1346.42 233.853 1346.42 244.092V269.713H1337.72V245.938C1337.72 238.951 1333.89 234.908 1327.57 234.908C1321.15 234.908 1315.92 238.951 1315.92 245.938V269.713Z" fill="black"/>
<g clip-path="url(#clip2_9_919)">
<path d="M510.507 234.981H498.11V287.457H510.507V234.981Z" fill="black"/>
<path d="M519.858 237.12H513.694V281.132H519.858V237.12Z" fill="black"/>
<path d="M527.548 240.884H522.406V277.363H527.548V240.884Z" fill="black"/>
<path d="M533.256 243.297H529.648V274.95H533.256V243.297Z" fill="black"/>
<path d="M537.237 245.717H534.873V272.53H537.237V245.717Z" fill="black"/>
<path d="M539.823 247.884H538.616V270.364H539.823V247.884Z" fill="black"/>
<path d="M555.726 269.887V248.844H564.425C568.791 248.844 571.611 251.526 571.611 255.434C571.611 259.342 568.791 262.039 564.425 262.039H559.001V269.887H555.726ZM559.001 259.066H564.285C566.857 259.066 568.197 257.455 568.197 255.439C568.197 253.423 566.857 251.812 564.285 251.812H559.001V259.07V259.066Z" fill="black"/>
<path d="M573.511 269.887V254.997H576.612V257.027C577.455 255.399 578.874 254.686 580.508 254.686C581.676 254.686 582.567 255.06 582.567 255.06L582.24 257.88C582.067 257.817 581.397 257.538 580.416 257.538C578.763 257.538 576.612 258.405 576.612 261.774V269.885H573.511V269.887Z" fill="black"/>
<path d="M583.133 262.443C583.133 258.087 586.532 254.69 591.086 254.69C595.641 254.69 599.039 258.087 599.039 262.443C599.039 266.8 595.641 270.196 591.086 270.196C586.532 270.196 583.133 266.8 583.133 262.443ZM591.086 267.311C593.907 267.311 595.951 265.187 595.951 262.443C595.951 259.7 593.911 257.575 591.086 257.575C588.261 257.575 586.221 259.7 586.221 262.443C586.221 265.187 588.261 267.311 591.086 267.311Z" fill="black"/>
<path d="M601.335 248.051H604.42V257.031C605.528 255.62 607.213 254.69 609.753 254.69C614.01 254.69 617.266 257.794 617.266 262.367C617.266 266.939 614.006 270.199 609.753 270.199C607.211 270.199 605.528 269.269 604.42 267.858V269.887H601.335V248.051ZM609.38 267.435C612.262 267.435 614.183 265.108 614.183 262.364C614.183 259.621 612.265 257.448 609.38 257.448C606.495 257.448 604.436 259.621 604.436 262.364C604.436 265.108 606.495 267.435 609.38 267.435Z" fill="black"/>
<path d="M626.907 254.69C631.27 254.69 634.111 257.915 634.111 261.899C634.111 262.364 634.081 262.846 633.984 263.324H622.371C622.511 265.559 624.429 267.311 627.015 267.311C628.887 267.311 630.381 266.521 631.505 264.768L633.782 266.414C632.393 268.894 629.667 270.199 627.015 270.199C622.493 270.199 619.172 266.879 619.172 262.462C619.172 258.045 622.368 254.69 626.907 254.69ZM630.977 261.032C630.789 258.94 629.029 257.464 626.877 257.464C624.586 257.464 622.84 258.938 622.449 261.032H630.975H630.977Z" fill="black"/>
<path d="M650.487 269.887H636.476V248.828H639.764V266.925H650.487V269.885V269.887Z" fill="black"/>
<path d="M658.981 260.937C660.774 260.937 662.068 261.311 662.752 261.632V260.825C662.752 258.963 661.239 257.568 658.918 257.568C657.063 257.568 655.52 258.624 654.631 259.63L652.683 257.708C653.837 256.25 656.238 254.686 658.967 254.686C663.178 254.686 665.844 256.95 665.844 260.563V269.883H662.821V267.96C661.9 269.355 660.169 270.194 658.159 270.194C654.917 270.194 652.377 268.567 652.377 265.652C652.377 262.736 655.059 260.937 658.988 260.937H658.983H658.981ZM658.605 267.681C661.037 267.681 662.752 266.021 662.752 263.992C662.112 263.666 660.678 263.278 659.059 263.278C657.111 263.278 655.49 263.931 655.49 265.542C655.49 266.891 656.846 267.681 658.61 267.681H658.605Z" fill="black"/>
<path d="M668.382 248.051H671.47V257.031C672.577 255.62 674.26 254.69 676.802 254.69C681.06 254.69 684.315 257.794 684.315 262.367C684.315 266.939 681.055 270.199 676.802 270.199C674.26 270.199 672.577 269.269 671.47 267.858V269.887H668.382V248.051ZM676.427 267.435C679.312 267.435 681.23 265.108 681.23 262.364C681.23 259.621 679.312 257.448 676.427 257.448C673.542 257.448 671.483 259.621 671.483 262.364C671.483 265.108 673.542 267.435 676.427 267.435Z" fill="black"/>
</g>
</g>
<defs>
<clipPath id="clip0_9_919">
<rect width="1500" height="320" fill="white"/>
</clipPath>
<clipPath id="clip1_9_919">
<rect width="186.205" height="52.476" fill="white" transform="translate(445.842 228.116)"/>
</clipPath>
<clipPath id="clip2_9_919">
<rect width="186.205" height="52.476" fill="white" transform="translate(498.11 234.981)"/>
</clipPath>
</defs>
</svg>
