<?xml version="1.0" encoding="UTF-8"?>
<svg id="Layer_1" xmlns="http://www.w3.org/2000/svg" xmlns:xlink="http://www.w3.org/1999/xlink" version="1.1" viewBox="0 0 1500 320">
  <!-- Generator: Adobe Illustrator 29.1.0, SVG Export Plug-In . SVG Version: 2.1.0 Build 142)  -->
  <defs>
    <style>
      .st0 {
        fill: none;
      }

      .st1 {
        clip-path: url(#clippath-1);
      }

      .st2 {
        clip-path: url(#clippath-2);
      }

      .st3 {
        fill: #89f81c;
      }

      .st4 {
        clip-path: url(#clippath);
      }
    </style>
    <clipPath id="clippath">
      <rect class="st0" width="1500" height="320"/>
    </clipPath>
    <clipPath id="clippath-1">
      <rect class="st0" x="445.8" y="228.1" width="186.2" height="52.5"/>
    </clipPath>
    <clipPath id="clippath-2">
      <rect class="st0" x="498.1" y="235" width="186.2" height="52.5"/>
    </clipPath>
  </defs>
  <g class="st4">
    <g>
      <rect width="1500" height="320"/>
      <g class="st1">
        <g>
          <path d="M458.2,228.1h-12.4v52.5h12.4v-52.5Z"/>
          <path d="M467.6,230.3h-6.2v44h6.2v-44Z"/>
          <path d="M475.3,234h-5.1v36.5h5.1v-36.5Z"/>
          <path d="M481,236.4h-3.6v31.7h3.6v-31.7Z"/>
          <path d="M485,238.9h-2.4v26.8h2.4v-26.8Z"/>
          <path d="M487.6,241h-1.2v22.5h1.2v-22.5Z"/>
          <path d="M503.5,263v-21h8.7c4.4,0,7.2,2.7,7.2,6.6s-2.8,6.6-7.2,6.6h-5.4v7.8h-3.3ZM506.7,252.2h5.3c2.6,0,3.9-1.6,3.9-3.6s-1.3-3.6-3.9-3.6h-5.3v7.3h0Z"/>
          <path d="M521.2,263v-14.9h3.1v2c.8-1.6,2.3-2.3,3.9-2.3s2.1.4,2.1.4l-.3,2.8c-.2,0-.8-.3-1.8-.3-1.7,0-3.8.9-3.8,4.2v8.1h-3.1Z"/>
          <path d="M530.9,255.6c0-4.4,3.4-7.8,8-7.8s8,3.4,8,7.8-3.4,7.8-8,7.8-8-3.4-8-7.8ZM538.8,260.4c2.8,0,4.9-2.1,4.9-4.9s-2-4.9-4.9-4.9-4.9,2.1-4.9,4.9,2,4.9,4.9,4.9Z"/>
          <path d="M549.1,241.2h3.1v9c1.1-1.4,2.8-2.3,5.3-2.3,4.3,0,7.5,3.1,7.5,7.7s-3.3,7.8-7.5,7.8-4.2-.9-5.3-2.3v2h-3.1v-21.8ZM557.1,260.6c2.9,0,4.8-2.3,4.8-5.1s-1.9-4.9-4.8-4.9-4.9,2.2-4.9,4.9,2.1,5.1,4.9,5.1Z"/>
          <path d="M574.6,247.8c4.4,0,7.2,3.2,7.2,7.2s0,.9-.1,1.4h-11.6c.1,2.2,2.1,4,4.6,4s3.4-.8,4.5-2.5l2.3,1.6c-1.4,2.5-4.1,3.8-6.8,3.8-4.5,0-7.8-3.3-7.8-7.7s3.2-7.8,7.7-7.8ZM578.7,254.2c-.2-2.1-1.9-3.6-4.1-3.6s-4,1.5-4.4,3.6h8.5Z"/>
          <path d="M598.2,263h-14v-21.1h3.3v18.1h10.7v3h0Z"/>
          <path d="M606.7,254.1c1.8,0,3.1.4,3.8.7v-.8c0-1.9-1.5-3.3-3.8-3.3s-3.4,1.1-4.3,2.1l-1.9-1.9c1.2-1.5,3.6-3,6.3-3,4.2,0,6.9,2.3,6.9,5.9v9.3h-3v-1.9c-.9,1.4-2.7,2.2-4.7,2.2-3.2,0-5.8-1.6-5.8-4.5s2.7-4.7,6.6-4.7h0ZM606.3,260.8c2.4,0,4.1-1.7,4.1-3.7-.6-.3-2.1-.7-3.7-.7s-3.6.7-3.6,2.3,1.4,2.1,3.1,2.1h0Z"/>
          <path d="M616.1,241.2h3.1v9c1.1-1.4,2.8-2.3,5.3-2.3,4.3,0,7.5,3.1,7.5,7.7s-3.3,7.8-7.5,7.8-4.2-.9-5.3-2.3v2h-3.1v-21.8ZM624.2,260.6c2.9,0,4.8-2.3,4.8-5.1s-1.9-4.9-4.8-4.9-4.9,2.2-4.9,4.9,2.1,5.1,4.9,5.1Z"/>
        </g>
      </g>
      <path d="M1109.4,258.1h-8.7v-61.9h8.8v25c1.4-2.2,5.4-6.2,13-6.2,11.4,0,17.5,7.2,17.5,17.4v25.6h-8.7v-23.8c0-7-3.8-11-10.2-11s-11.7,4-11.7,11v23.8ZM1148.7,237c0-12.6,9-22,21.8-22s20.3,9.1,20.3,20.4,0,2.7-.4,4h-32.7c.4,6.3,5.8,11.3,13.1,11.3s9.5-2.2,12.7-7.2l6.4,4.7c-3.9,7-11.6,10.7-19.1,10.7-12.7,0-22.1-9.4-22.1-21.9ZM1158,233h24c-.5-5.9-5.5-10.1-11.6-10.1s-11.4,4.2-12.5,10.1ZM1209.1,258.1h-8.7v-42.2h8.7v5.8c2.4-4.6,6.4-6.6,11-6.6s5.8,1.1,5.8,1.1l-.9,8c-.5-.2-2.4-1-5.2-1-4.7,0-10.7,2.5-10.7,12v23ZM1233.2,258.1v-42.2h8.8v5.3c1.4-2.2,5.4-6.2,12.8-6.2s12.3,3,15,7.9c2.5-4.1,7.8-7.9,15.1-7.9,11.2,0,17.3,7.2,17.3,17.4v25.6h-8.8v-23.8c0-7-3.7-11-9.9-11s-11.2,3.9-11.4,10.5v24.3h-8.7v-23.8c0-7-3.7-11-9.9-11s-11.4,4-11.4,11v23.8h-8.8ZM1311,237c0-12.6,9-22,21.8-22s20.3,9.1,20.3,20.4,0,2.7-.4,4h-32.7c.4,6.3,5.8,11.3,13.1,11.3s9.5-2.2,12.7-7.2l6.4,4.7c-3.9,7-11.6,10.7-19.1,10.7-12.7,0-22.1-9.4-22.1-21.9ZM1320.2,233h24c-.5-5.9-5.5-10.1-11.6-10.1s-11.4,4.2-12.5,10.1ZM1359.3,249.2l6.5-5.2c2.4,4.1,6.4,7,11.8,7s7.9-1.8,7.9-4.7-2.6-4.1-8.8-5.5c-9.1-2-15.5-4.9-15.5-13.2s7-12.6,15.6-12.6,13.9,4.1,16.7,8.7l-5.8,5c-2.3-3.3-5.9-5.8-10.9-5.8s-7,1.8-7,4.5,3.1,4.1,9.3,5.6c9.2,2.2,15.2,5.2,15.2,13.3s-7.7,12.7-16.7,12.7-15-3.8-18.2-9.8Z"/>
      <g>
        <path class="st3" d="M1500,276v-132.1h0v-14.7h-14.7v-14.6h14.7v-14.8h-14.8v14.7h-14.6v-14.7h-14.8v14.8h14.7v14.6h-14.7v14.7h-16.4v-44h-86.9v-44.1h-95.3v44.1h-37.6v44h-32.2v-44h-163.7v44h-223.3v-44h-367.7v44h-58.8v-6.3h-98v6.4h47.7v43.9h0v44h0v54.6h92.8v33.5h1083.3v-33.6h-87.5v-10.4h0v-6.3h6.2v6.3h6.4v-6.3h6.2v6.3h6.4v-6.4h-6.3v-6.2h6.3v-6.4h-6.3v-6.2h6.3v-6.4h-6.3v-6.2h6.3v-6.3h49.1v44h13.3ZM417,188h40.1v-44h17v6.3h162.8v-6.3h70.1v43.9h-70.1v-6.3h-162.8v6.3h0v44h-57.1v-43.9ZM1425,244.5h-6.2v-6.2h6.2v6.2ZM1425,257.1h-6.2v-6.2h6.2v6.2ZM1418.7,250.8h-6.2v-6.2h6.2v6.2ZM1418.7,238.2h-6.2v-6.2h6.2v6.2ZM699.5,286.4v-54.4h10.5v54.4h-10.5ZM1412.5,257.2h6.2v6.2h-6.2v-6.2ZM1485.3,129.4v14.6h-14.6v-14.6h14.6ZM1418.8,263.5h6.2v6.2h-6.2v-6.2ZM1431.2,263.4h-6.2v-6.2h6.2v6.2ZM1431.2,250.8h-6.2v-6.2h6.2v6.2ZM1425.1,238.2v-6.2h6.2v6.2h-6.2Z"/>
        <rect class="st3" x="474.1" y="169.1" width="162.8" height="6.4"/>
        <rect class="st3" x="474.1" y="156.5" width="162.8" height="6.4"/>
        <path class="st3" d="M126.1,238.1h-6.2v-6.3h-6.4v6.3h-6.2v-6.3h-6.4v6.3h-6.2v-6.3h-6.4v6.4h6.3v6.2h-6.3v6.4h6.3v6.2h-6.3v6.4h6.3v6.2h-6.3v6.4h6.4v-6.3h6.2v6.3h6.4v-6.3h6.2v6.3h6.4v-6.3h6.2v6.3h6.4v-6.4h-6.3v-6.2h6.3v-6.4h-6.3v-6.2h6.3v-6.4h-6.3v-6.2h6.3v-6.4h-6.4v6.3ZM119.8,257h-6.2v-6.2h6.2v6.2ZM101,250.8h6.2v6.2h-6.2v-6.2ZM107.3,257.1h6.2v6.2h-6.2v-6.2ZM113.5,250.7h-6.2v-6.2h6.2v6.2ZM100.9,250.7h-6.2v-6.2h6.2v6.2ZM94.7,257.1h6.2v6.2h-6.2v-6.2ZM119.9,257.1h6.2v6.2h-6.2v-6.2ZM126.1,250.7h-6.2v-6.2h6.2v6.2ZM119.8,244.4h-6.2v-6.2h6.2v6.2ZM107.2,244.4h-6.2v-6.2h6.2v6.2ZM101,269.6v-6.2h6.2v6.2h-6.2ZM113.6,269.6v-6.2h6.2v6.2h-6.2Z"/>
        <rect class="st3" x="276.2" y="125.1" width="98" height="6.4"/>
        <rect class="st3" x="276.2" y="112.5" width="98" height="6.4"/>
        <path class="st3" d="M55.7,100h220.5v6.3h98v-6.4h-94.1v-43.9h43.9V11.9h-44v44H40.9v43.9h0v14.7h-14.6v-14.5H0v44.1h26.4v-14.8h14.6v14.7h14.8v-14.7h14.7v-14.8h-14.7v-14.4ZM55.6,114.6v14.6h-14.6v-14.6h14.6Z"/>
        <path class="st3" d="M273.2,187.8h-14.8v14.7h-14.7v14.8h14.7v14.7h14.8v-14.7h14.7v-14.8h-14.7v-14.7ZM258.6,202.6h14.6v14.6h-14.6v-14.6Z"/>
      </g>
      <path d="M898.6,257.7c0-7.9,7.6-13.4,18.6-13.4s8.7,1.1,10.6,2v-2.3c0-5.3-4.3-9.2-10.8-9.2s-9.6,3-12.1,5.8l-5.5-5.4c3.3-4.1,10-8.6,17.7-8.6,11.9,0,19.4,6.4,19.4,16.7v26.4h-8.5v-5.5c-2.6,4-7.5,6.3-13.1,6.3-9.1,0-16.3-4.6-16.3-12.9ZM907.4,257.4c0,3.8,3.8,6.1,8.8,6.1s11.7-4.7,11.7-10.5c-1.8-.9-5.8-2-10.4-2s-10.1,1.8-10.1,6.4ZM957.2,269.7h-8.7v-42.2h8.7v5.3c1.4-2.2,5.4-6.2,13-6.2,11.6,0,17.7,7.2,17.7,17.4v25.6h-8.7v-23.8c0-7-3.8-11-10.4-11s-11.6,4-11.6,11v23.8ZM1001.9,234.9h-7.5v-7.4h7.6v-13.5h8.5v13.5h13.4v7.4h-13.3v21.1c0,4.5,2.6,6.7,6.9,6.7s4.8-.6,6.9-1.5l1.1,7.5c-2.1,1.1-5.8,1.8-9.2,1.8-8.8,0-14.4-5-14.4-13.5v-22.1ZM1029.5,260.8l6.5-5.2c2.4,4.1,6.4,7,11.8,7s7.9-1.8,7.9-4.7-2.6-4.1-8.8-5.5c-9.1-2-15.5-4.9-15.5-13.2s7-12.6,15.6-12.6,13.9,4.1,16.7,8.7l-5.9,5c-2.3-3.3-5.9-5.8-10.8-5.8s-7,1.8-7,4.5,3.1,4.1,9.3,5.6c9.2,2.2,15.2,5.2,15.2,13.3s-7.7,12.7-16.7,12.7-15-3.8-18.2-9.8ZM1101.8,240.4v8.1h-28.8v-8.1h28.8ZM1120.6,269.7l-12.4-42.2h9.2l9.3,33.7,9.8-33.2h9.2l9.8,33.2,9.3-33.7h9.2l-12.4,42.2h-11.9l-8.6-30-8.6,30h-11.9ZM1178.1,257.7c0-7.9,7.6-13.4,18.6-13.4s8.7,1.1,10.6,2v-2.3c0-5.3-4.3-9.2-10.8-9.2s-9.6,3-12.1,5.8l-5.5-5.4c3.2-4.1,10-8.6,17.7-8.6,11.9,0,19.4,6.4,19.4,16.7v26.4h-8.5v-5.5c-2.6,4-7.5,6.3-13.1,6.3-9.1,0-16.3-4.6-16.3-12.9ZM1186.9,257.4c0,3.8,3.8,6.1,8.8,6.1s11.7-4.7,11.7-10.5c-1.8-.9-5.8-2-10.4-2s-10.1,1.8-10.1,6.4ZM1230,234.9h-7.5v-7.4h7.7v-13.5h8.5v13.5h13.4v7.4h-13.3v21.1c0,4.5,2.6,6.7,6.9,6.7s4.8-.6,6.8-1.5l1.1,7.5c-2.1,1.1-5.8,1.8-9.2,1.8-8.8,0-14.4-5-14.4-13.5v-22.1ZM1279.1,270.6c-12.8,0-22.4-9.7-22.4-22s10-21.9,22.7-21.9,15.2,4.4,19.2,11.6l-6.7,4.6c-2.6-4.9-7.4-8-12.7-8-8.1,0-13.8,6-13.8,13.8s5.8,13.8,13.6,13.8,10.1-2.9,13-7.9l6.6,4.6c-3.9,6.9-11,11.5-19.5,11.5ZM1315.9,269.7h-8.7v-61.9h8.7v25c1.4-2.2,5.4-6.2,13-6.2,11.4,0,17.5,7.2,17.5,17.4v25.6h-8.7v-23.8c0-7-3.8-11-10.2-11s-11.6,4-11.6,11v23.8Z"/>
      <g class="st2">
        <g>
          <path d="M510.5,235h-12.4v52.5h12.4v-52.5Z"/>
          <path d="M519.9,237.1h-6.2v44h6.2v-44Z"/>
          <path d="M527.5,240.9h-5.1v36.5h5.1v-36.5Z"/>
          <path d="M533.3,243.3h-3.6v31.7h3.6v-31.7Z"/>
          <path d="M537.2,245.7h-2.4v26.8h2.4v-26.8Z"/>
          <path d="M539.8,247.9h-1.2v22.5h1.2v-22.5Z"/>
          <path d="M555.7,269.9v-21h8.7c4.4,0,7.2,2.7,7.2,6.6s-2.8,6.6-7.2,6.6h-5.4v7.8h-3.3ZM559,259.1h5.3c2.6,0,3.9-1.6,3.9-3.6s-1.3-3.6-3.9-3.6h-5.3v7.3h0Z"/>
          <path d="M573.5,269.9v-14.9h3.1v2c.8-1.6,2.3-2.3,3.9-2.3s2.1.4,2.1.4l-.3,2.8c-.2,0-.8-.3-1.8-.3-1.7,0-3.8.9-3.8,4.2v8.1h-3.1Z"/>
          <path d="M583.1,262.4c0-4.4,3.4-7.8,8-7.8s8,3.4,8,7.8-3.4,7.8-8,7.8-8-3.4-8-7.8ZM591.1,267.3c2.8,0,4.9-2.1,4.9-4.9s-2-4.9-4.9-4.9-4.9,2.1-4.9,4.9,2,4.9,4.9,4.9Z"/>
          <path d="M601.3,248.1h3.1v9c1.1-1.4,2.8-2.3,5.3-2.3,4.3,0,7.5,3.1,7.5,7.7s-3.3,7.8-7.5,7.8-4.2-.9-5.3-2.3v2h-3.1v-21.8ZM609.4,267.4c2.9,0,4.8-2.3,4.8-5.1s-1.9-4.9-4.8-4.9-4.9,2.2-4.9,4.9,2.1,5.1,4.9,5.1Z"/>
          <path d="M626.9,254.7c4.4,0,7.2,3.2,7.2,7.2s0,.9-.1,1.4h-11.6c.1,2.2,2.1,4,4.6,4s3.4-.8,4.5-2.5l2.3,1.6c-1.4,2.5-4.1,3.8-6.8,3.8-4.5,0-7.8-3.3-7.8-7.7s3.2-7.8,7.7-7.8ZM631,261c-.2-2.1-1.9-3.6-4.1-3.6s-4,1.5-4.4,3.6h8.5Z"/>
          <path d="M650.5,269.9h-14v-21.1h3.3v18.1h10.7v3h0Z"/>
          <path d="M659,260.9c1.8,0,3.1.4,3.8.7v-.8c0-1.9-1.5-3.3-3.8-3.3s-3.4,1.1-4.3,2.1l-1.9-1.9c1.2-1.5,3.6-3,6.3-3,4.2,0,6.9,2.3,6.9,5.9v9.3h-3v-1.9c-.9,1.4-2.7,2.2-4.7,2.2-3.2,0-5.8-1.6-5.8-4.5s2.7-4.7,6.6-4.7h0ZM658.6,267.7c2.4,0,4.1-1.7,4.1-3.7-.6-.3-2.1-.7-3.7-.7s-3.6.7-3.6,2.3,1.4,2.1,3.1,2.1h0Z"/>
          <path d="M668.4,248.1h3.1v9c1.1-1.4,2.8-2.3,5.3-2.3,4.3,0,7.5,3.1,7.5,7.7s-3.3,7.8-7.5,7.8-4.2-.9-5.3-2.3v2h-3.1v-21.8ZM676.4,267.4c2.9,0,4.8-2.3,4.8-5.1s-1.9-4.9-4.8-4.9-4.9,2.2-4.9,4.9,2.1,5.1,4.9,5.1Z"/>
        </g>
      </g>
    </g>
  </g>
</svg>